<?xml version="1.0" encoding="utf-8"?>
<!-- Generator: Adobe Illustrator 19.2.0, SVG Export Plug-In . SVG Version: 6.00 Build 0)  -->
<svg version="1.1" id="Layer_1" xmlns="http://www.w3.org/2000/svg" xmlns:xlink="http://www.w3.org/1999/xlink" x="0px" y="0px"
	 viewBox="0 0 612 792" style="enable-background:new 0 0 612 792;" xml:space="preserve">
<style type="text/css">
	.st0{fill:#ABABAB;}
	.st1{fill:#B5293E;}
	.st2{fill:#132044;}
	.st3{font-family:'RitzFLF';}
	.st4{font-size:185.1184px;}
</style>
<circle class="st0" cx="173.4" cy="344.5" r="115.9"/>
<g>
	<path class="st1" d="M178.8,463.5C111.7,463.4,57.4,409,57.5,341.9c0.1-67.3,54.5-121.5,121.8-121.4c67.1,0.1,121.3,54.6,121.2,122
		C300.3,409.3,245.8,463.5,178.8,463.5z M288.3,336c-1.3-21.3-8-40.3-19.7-57c-9.8,4.9-19.1,9.6-28.6,14.3c-1.6,0.8-1.1,1.6-0.8,2.9
		c1.9,8.4,3.9,16.9,5.6,25.4c0.9,4.7,1.1,9.6,1.7,14.5C260.4,336,274.2,336,288.3,336z M89.3,279c-11.8,16.7-18.5,35.7-19.7,56.9
		c14.1,0,28,0,41.8,0c0.1-0.4,0.3-0.7,0.3-1c0.9-13.4,3-26.6,7.2-39.4c0.2-0.6-0.5-1.8-1.1-2.1C108.4,288.6,99,283.9,89.3,279z
		 M247.3,348c-2.5,14.2-5,28.2-7.4,42c9.2,4.8,18.8,9.9,28.6,15.1c11.9-17,18.7-36,19.8-57.2C274.2,348,260.4,348,247.3,348z
		 M110.7,348.1c-13.2,0-27.1,0-41.1,0c1.3,21.2,8,40.3,19.9,57.1c10-5.3,19.6-10.4,28.6-15.1C115.6,376.1,113.1,362.2,110.7,348.1z
		 M123.7,348.1c0.3,13.2,2.7,25.6,6.3,37.1c14.6-2.5,28.7-5,42.9-7.4c0-9.5,0-19.5,0-29.6C156.5,348.1,140.3,348.1,123.7,348.1z
		 M234.2,348.1c-16.6,0-32.9,0-49.1,0c0,10.3,0,20.4,0,30.5c14.6,0.6,28.6,3.1,42.5,7.4C231.5,373.6,234,361.1,234.2,348.1z
		 M173,306.3c-14.4-2.5-28.4-4.9-42.6-7.4c-3.7,11.6-6.3,24-6.6,36.9c16.6,0,32.9,0,49.2,0C173,325.7,173,315.7,173,306.3z
		 M184.9,335.9c16.5,0,32.8,0,49.3,0c-0.5-13-2.9-25.5-6.7-36.9c-14.4,2.5-28.4,4.9-42.6,7.3C184.9,315.7,184.9,325.7,184.9,335.9z
		 M134.4,397.4c8.8,20.6,21.3,38.2,38.4,52.8c0-20.2,0-39.8,0-59.6C159.6,391.1,147,393.3,134.4,397.4z M223.4,397.5
		c-9.9-3.8-32.1-7.5-38.4-6.5c0,19.6,0,39.2,0,59.3C202.1,435.5,214.7,418,223.4,397.5z M172.9,234.9c-16.8,14.6-29.3,31.7-38,51.9
		c12.5,3.9,25,6.1,38,6.6C172.9,273.9,172.9,254.7,172.9,234.9z M223,286.8c-8.9-20.3-21.2-37.4-38-51.8c0,19.8,0,39,0,58.5
		C198.1,292.9,210.5,290.7,223,286.8z M203.6,235.5c12.9,14.1,23.4,29.7,31,47.9c9-4.8,17.6-9.3,26.5-14.1
		C244.9,251.7,226.1,240.5,203.6,235.5z M123.4,283.3c7.6-18.2,18.1-33.8,31-47.9c-22.6,5.1-41.4,16.3-57.5,33.9
		C105.9,274,114.5,278.6,123.4,283.3z M234.9,400.9c-7.3,17.9-17.4,33.2-29.7,47.1c21.9-5.1,40.1-16.2,55.8-33.3
		C252.1,410,243.6,405.5,234.9,400.9z M96.9,414.7c15.6,17.1,33.9,28.2,55.8,33.3c-12.3-14-22.4-29.3-29.7-47.1
		C114.2,405.5,105.8,410,96.9,414.7z"/>
</g>
<text transform="matrix(1 0 0 1 159.5918 407.2734)" class="st2 st3 st4">CTN</text>
</svg>
