<?xml version="1.0" encoding="utf-8"?>
<!-- Generator: Adobe Illustrator 19.2.0, SVG Export Plug-In . SVG Version: 6.00 Build 0)  -->
<svg version="1.1" id="Layer_1" xmlns="http://www.w3.org/2000/svg" xmlns:xlink="http://www.w3.org/1999/xlink" x="0px" y="0px"
	 viewBox="0 0 612 792" style="enable-background:new 0 0 612 792;" xml:space="preserve">
<style type="text/css">
	.st0{fill:#ABABAB;}
	.st1{fill:#B5293E;}
	.st2{fill:#132044;}
	.st3{font-family:'RitzFLF';}
	.st4{font-size:131.5113px;}
</style>
<circle class="st0" cx="139.8" cy="379" r="82.4"/>
<g>
	<path class="st1" d="M143.6,463.5c-47.6,0-86.3-38.7-86.2-86.4c0.1-47.8,38.7-86.3,86.5-86.2c47.7,0.1,86.2,38.8,86.1,86.7
		C230,425,191.3,463.5,143.6,463.5z M221.5,372.9c-0.9-15.1-5.7-28.6-14-40.5c-6.9,3.5-13.6,6.9-20.3,10.1c-1.1,0.6-0.8,1.2-0.6,2
		c1.4,6,2.8,12,4,18c0.6,3.4,0.8,6.8,1.2,10.3C201.6,372.9,211.4,372.9,221.5,372.9z M80.1,332.4c-8.4,11.9-13.1,25.4-14,40.4
		c10,0,19.9,0,29.7,0c0.1-0.3,0.2-0.5,0.2-0.7c0.6-9.5,2.2-18.9,5.1-28c0.1-0.4-0.4-1.3-0.8-1.5C93.6,339.2,87,335.9,80.1,332.4z
		 M192.3,381.5c-1.8,10.1-3.5,20-5.2,29.8c6.5,3.4,13.3,7.1,20.3,10.8c8.5-12.1,13.3-25.6,14.1-40.6
		C211.4,381.5,201.6,381.5,192.3,381.5z M95.3,381.5c-9.4,0-19.2,0-29.2,0c0.9,15.1,5.7,28.6,14.1,40.5c7.1-3.8,14-7.4,20.3-10.7
		C98.7,401.4,97,391.5,95.3,381.5z M104.5,381.5c0.2,9.4,1.9,18.2,4.5,26.3c10.4-1.8,20.4-3.5,30.5-5.3c0-6.7,0-13.8,0-21.1
		C127.8,381.5,116.3,381.5,104.5,381.5z M183,381.5c-11.8,0-23.3,0-34.9,0c0,7.3,0,14.5,0,21.7c10.3,0.4,20.3,2.2,30.2,5.3
		C181.1,399.6,182.9,390.8,183,381.5z M139.5,351.8c-10.2-1.8-20.2-3.5-30.3-5.2c-2.6,8.2-4.5,17-4.7,26.2c11.8,0,23.4,0,35,0
		C139.5,365.6,139.5,358.5,139.5,351.8z M148,372.8c11.7,0,23.3,0,35,0c-0.4-9.3-2.1-18.1-4.8-26.2c-10.2,1.8-20.2,3.5-30.3,5.2
		C148,358.5,148,365.6,148,372.8z M112.1,416.5c6.2,14.6,15.1,27.1,27.3,37.5c0-14.3,0-28.3,0-42.4C130,412.1,121,413.7,112.1,416.5
		z M175.4,416.6c-7-2.7-22.8-5.4-27.3-4.6c0,13.9,0,27.8,0,42.2C160.2,443.6,169.2,431.2,175.4,416.6z M139.5,301.1
		c-11.9,10.4-20.8,22.5-27,36.9c8.9,2.8,17.8,4.4,27,4.7C139.5,328.8,139.5,315.1,139.5,301.1z M175.1,337.9
		c-6.3-14.4-15.1-26.6-27-36.8c0,14,0,27.7,0,41.5C157.3,342.3,166.2,340.8,175.1,337.9z M161.2,301.5c9.1,10,16.6,21.1,22,34
		c6.4-3.4,12.5-6.6,18.8-10C190.6,313,177.2,305.1,161.2,301.5z M104.3,335.5c5.4-13,12.9-24,22-34c-16,3.6-29.4,11.6-40.9,24.1
		C91.8,328.9,98,332.2,104.3,335.5z M183.5,419c-5.2,12.7-12.3,23.6-21.1,33.5c15.6-3.6,28.5-11.5,39.6-23.7
		C195.7,425.5,189.7,422.3,183.5,419z M85.5,428.8c11.1,12.1,24.1,20,39.6,23.7c-8.7-10-15.9-20.8-21.1-33.5
		C97.8,422.3,91.8,425.5,85.5,428.8z"/>
</g>
<text transform="matrix(1 0 0 1 244.0278 425.5527)" class="st2 st3 st4">CTN</text>
</svg>
